<svg width="100" height="162" viewBox="0 0 100 162" fill="none" xmlns="http://www.w3.org/2000/svg">
<mask id="mask0_1_40" style="mask-type:alpha" maskUnits="userSpaceOnUse" x="20" y="91" width="60" height="50">
<path fill-rule="evenodd" clip-rule="evenodd" d="M80 133.769V91H39.7465L80 133.769ZM37 91H20V141H80V139.606L35.5436 92.3707L37 91Z" fill="#616161"/>
</mask>
<g mask="url(#mask0_1_40)">
<path d="M20 111C20 108.239 22.2386 106 25 106H35V126H25C22.2386 126 20 123.761 20 121V111Z" fill="white"/>
<path d="M35 106L51 91V114V141L35 126V106Z" fill="white"/>
<path d="M55 139C67.7025 139 78 128.703 78 116C78 103.297 67.7025 93 55 93" stroke="white" stroke-width="4"/>
<path d="M55 131C63.2843 131 70 124.284 70 116C70 107.716 63.2843 101 55 101" stroke="white" stroke-width="4"/>
</g>
<path d="M32 91L80 142" stroke="white" stroke-width="5"/>
<mask id="mask1_1_40" style="mask-type:alpha" maskUnits="userSpaceOnUse" x="20" y="20" width="60" height="50">
<path d="M20 20H80V70H20V20Z" fill="#616161"/>
</mask>
<g mask="url(#mask1_1_40)">
<path d="M20 40C20 37.2386 22.2386 35 25 35H35V55H25C22.2386 55 20 52.7614 20 50V40Z" fill="white"/>
<path d="M35 35L51 20V43V70L35 55V35Z" fill="white"/>
<path d="M55 68C67.7025 68 78 57.7025 78 45C78 32.2975 67.7025 22 55 22" stroke="white" stroke-width="4"/>
<path d="M55 60C63.2843 60 70 53.2843 70 45C70 36.7157 63.2843 30 55 30" stroke="white" stroke-width="4"/>
</g>
<rect x="0.5" y="0.5" width="99" height="161" rx="4.5" stroke="#9747FF" stroke-dasharray="10 5"/>
</svg>
